<svg xmlns="http://www.w3.org/2000/svg" xmlns:xlink="http://www.w3.org/1999/xlink" version="1.1" x="0px" y="0px" viewBox="0 0 50 62.5" enable-background="new 0 0 50 50" xml:space="preserve"><g><path fill="#ffffff" d="M42.5,22.1c-2.6,0-5,1.4-6.3,3.7c-1.3-2.3-3.7-3.7-6.3-3.7c-5.5,0-8.3,6.4-5.3,10.7c0,0,0.1,0.1,0.1,0.1l7.8,8.6   c-0.1,0.1-0.2,0.2-0.3,0.4c-1.9,1.9-4.4,2.9-7.1,2.9c-5.6,0-10.1-4.5-10.1-10.1v-8.9c6.6-0.5,11.9-6.1,11.9-12.8V5.6   c0-0.6-0.4-1-1-1c0,0,0,0,0,0l0,0h-3.1V4.1c0-0.6-0.4-1-1-1h-2.1c-1,0-1.8,0.8-1.8,1.8v1.2c0,1,0.8,1.8,1.8,1.8h2.1   c0.6,0,1-0.4,1-1V6.6h2.1v6.5c0,6-4.9,10.9-10.9,10.9C7.9,24,3,19.1,3,13.1V6.6h2.9V7c0,0.6,0.4,1,1,1H9c1,0,1.8-0.8,1.8-1.8V5   c0-1-0.8-1.8-1.8-1.8H6.9c-0.6,0-1,0.4-1,1v0.4H2l0,0c0,0,0,0,0,0c-0.6,0-1,0.4-1,1v7.5c0,6.8,5.2,12.3,11.9,12.8v8.9   c0,6.6,5.4,12.1,12.1,12.1c3.2,0,6.2-1.3,8.5-3.5c0.1-0.1,0.2-0.2,0.3-0.3l1.1,1.2c0.3,0.4,0.8,0.6,1.3,0.6c0.5,0,1-0.2,1.3-0.6   l10.3-11.3c0,0,0.1-0.1,0.1-0.1C50.8,28.5,48,22.1,42.5,22.1z M20.7,5.6C20.7,5.6,20.6,5.6,20.7,5.6C20.6,5.6,20.7,5.6,20.7,5.6V6   h-0.9V5.1h0.9V5.6z M7.9,5.1h0.9V6H7.9V5.1z M46.2,31.7l-10,11.1L35,41.5c0.8-1.2,1.4-2.6,1.7-4.1c2.1-0.3,3.7-2.1,3.7-4.3   c0-2.4-2-4.4-4.4-4.4s-4.4,2-4.4,4.4c0,1.9,1.3,3.6,3.1,4.1c-0.2,0.9-0.6,1.8-1.1,2.7l-7.5-8.3c-2-3-0.2-7.6,3.7-7.6   c2,0,3.8,1.1,4.7,3c0.3,0.6,0.9,1,1.6,1s1.3-0.4,1.6-1c0.9-1.8,2.7-3,4.8-3C46.4,24.1,48.2,28.6,46.2,31.7z M33.6,33.1   c0-1.3,1.1-2.4,2.4-2.4s2.4,1.1,2.4,2.4c0,1.3-1.1,2.4-2.4,2.4S33.6,34.4,33.6,33.1z"/></g></svg>
