<?xml version="1.0" encoding="utf-8"?>
<!-- Generator: Adobe Illustrator 16.0.0, SVG Export Plug-In . SVG Version: 6.00 Build 0)  -->
<!DOCTYPE svg PUBLIC "-//W3C//DTD SVG 1.1//EN" "http://www.w3.org/Graphics/SVG/1.1/DTD/svg11.dtd">
<svg version="1.1" id="Layer_1" xmlns="http://www.w3.org/2000/svg" xmlns:xlink="http://www.w3.org/1999/xlink" x="0px" y="0px"
	 width="24px" height="24px" viewBox="336.782 295.102 24 24" enable-background="new 336.782 295.102 24 24" xml:space="preserve">
<g>
	<path fill="#FFFFFF" d="M357.506,305.589c-1.299,0-2.498,0.699-3.146,1.848c-0.648-1.149-1.847-1.848-3.146-1.848
		c-2.746,0-4.144,3.196-2.646,5.344l0.05,0.049l3.896,4.294c-0.051,0.05-0.101,0.1-0.15,0.2c-0.949,0.949-2.197,1.448-3.545,1.448
		c-2.796,0-5.043-2.247-5.043-5.043v-4.444c3.295-0.25,5.942-3.046,5.942-6.392v-3.695c0-0.3-0.2-0.5-0.499-0.5l0,0l0,0h-1.548
		v-0.249c0-0.3-0.2-0.5-0.499-0.5h-1.049c-0.499,0-0.899,0.4-0.899,0.899v0.6c0,0.499,0.4,0.899,0.899,0.899h1.049
		c0.299,0,0.499-0.2,0.499-0.5v-0.15h1.049v3.246c0,2.997-2.448,5.444-5.443,5.444c-3.045,0-5.493-2.447-5.493-5.444v-3.246h1.448
		v0.2c0,0.3,0.2,0.5,0.5,0.5h1.048c0.5,0,0.899-0.399,0.899-0.899v-0.599c0-0.499-0.399-0.899-0.899-0.899h-1.048
		c-0.3,0-0.5,0.2-0.5,0.5v0.2h-1.948l0,0l0,0c-0.3,0-0.5,0.2-0.5,0.5v3.745c0,3.396,2.597,6.143,5.942,6.393v4.443
		c0,3.296,2.697,6.042,6.042,6.042c1.598,0,3.096-0.648,4.245-1.747c0.049-0.05,0.098-0.1,0.149-0.15l0.55,0.599
		c0.149,0.2,0.399,0.3,0.648,0.3c0.25,0,0.5-0.1,0.648-0.3l5.145-5.642l0.05-0.05C361.651,308.786,360.253,305.589,357.506,305.589z
		 M346.62,297.351C346.62,297.351,346.57,297.351,346.62,297.351C346.57,297.351,346.62,297.351,346.62,297.351v0.2h-0.449v-0.45
		h0.449V297.351z M340.229,297.101h0.449v0.45h-0.449V297.101z M359.353,310.383l-4.993,5.542l-0.599-0.649
		c0.4-0.599,0.699-1.298,0.849-2.047c1.048-0.15,1.849-1.049,1.849-2.147c0-1.198-1-2.198-2.198-2.198c-1.199,0-2.197,1-2.197,2.198
		c0,0.949,0.648,1.797,1.548,2.047c-0.1,0.45-0.3,0.898-0.55,1.348l-3.745-4.145c-0.998-1.497-0.099-3.794,1.848-3.794
		c0.999,0,1.897,0.549,2.348,1.497c0.15,0.3,0.45,0.5,0.799,0.5s0.648-0.2,0.799-0.5c0.449-0.898,1.35-1.497,2.397-1.497
		C359.454,306.588,360.353,308.836,359.353,310.383z M353.061,311.083c0-0.649,0.55-1.198,1.199-1.198s1.198,0.549,1.198,1.198
		c0,0.648-0.549,1.199-1.198,1.199S353.061,311.731,353.061,311.083z"/>
</g>
</svg>
